# AST/ASF file generated using VICON BodyLanguage
# -----------------------------------------------
:version 1.10
:name VICON
:units
  mass 1.0
  length 0.45
  angle deg
:documentation
   .ast/.asf automatically generated from VICON data using
   VICON BodyBuilder and BodyLanguage model FoxedUp or BRILLIANT.MOD
:root
   order TX TY TZ RX RY RZ
   axis XYZ
   position 0 0 0  
   orientation 0 0 0 
:bonedata
  begin
     id 1 
     name lhipjoint
     direction 0.650112 -0.723553 0.232005 
     length 2.45805 
     axis 0 0 0  XYZ
  end
  begin
     id 2 
     name lfemur
     direction 0.34202 -0.939693 0  
     length 7.00073  
     axis 0 0 20  XYZ
    dof rx ry rz
    limits (-160.0 20.0)
           (-70.0 70.0)
           (-60.0 70.0)
  end
  begin
     id 3 
     name ltibia
     direction 0.34202 -0.939693 0   
     length 7.8748   
     axis 0 0 20   XYZ
    dof rx
    limits (-10.0 170.0)
  end
  begin
     id 4 
     name lfoot
     direction 0.0542825 -0.14914 0.987325   
     length 1.75978   
     axis -90 7.62852e-016 20   XYZ
    dof rx rz
    limits (-45.0 90.0)
           (-70.0 20.0)
  end
  begin
     id 5 
     name ltoes
     direction 1.53509e-011 -4.21906e-011 1   
     length 0.893912   
     axis -90 7.62852e-016 20   XYZ
    dof rx
    limits (-90.0 20.0)
  end
  begin
     id 6 
     name rhipjoint
     direction -0.637897 -0.733345 0.235145   
     length 2.42522  
     axis 0 0 0  XYZ 
  end
  begin
     id 7 
     name rfemur
     direction -0.34202 -0.939693 0   
     length 7.02549   
     axis 0 0 -20   XYZ
    dof rx ry rz
    limits (-160.0 20.0)
           (-70.0 70.0)
           (-70.0 60.0)
  end
  begin
     id 8 
     name rtibia
     direction -0.34202 -0.939693 0   
     length 7.71512   
     axis 0 0 -20   XYZ
    dof rx
    limits (-10.0 170.0)
 end
 begin
     id 9 
     name rfoot
     direction -0.0822618 -0.226012 0.970645   
     length 1.90014  
     axis -90 -7.62852e-016 -20   XYZ
    dof rx rz
    limits (-45.0 90.0)
           (-20.0 70.0)
  end
  begin
     id 10 
     name rtoes
     direction -1.53542e-011 -4.21872e-011 1   
     length 0.957341   
     axis -90 -7.62852e-016 -20   XYZ
    dof rx
    limits (-90.0 20.0)
  end
  begin
     id 11 
     name lowerback
     direction -0.0022947 0.999774 -0.0211557   
     length 1.89909   
     axis 0 0 0   XYZ
    dof rx ry rz
    limits (-20.0 45.0)
           (-30.0 30.0)
           (-30.0 30.0)
  end
  begin
     id 12 
     name upperback
     direction 0.0107737 0.998635 0.0511027   
     length 1.8853   
     axis 0 0 0   XYZ
    dof rx ry rz
    limits (-20.0 45.0)
           (-30.0 30.0)
           (-30.0 30.0)
  end
  begin
     id 13 
     name thorax
     direction 0.011824 0.998136 0.0598754   
     length 1.88911   
     axis 0 0 0   XYZ
    dof rx ry rz
    limits (-20.0 45.0)
           (-30.0 30.0)
           (-30.0 30.0)
  end
  begin
     id 14 
     name lowerneck
     direction -0.0685355 0.990319 0.120714   
     length 1.91222   
     axis 0 0 0   XYZ
    dof rx ry rz
    limits (-20.0 45.0)
           (-30.0 30.0)
           (-30.0 30.0)
  end
  begin
     id 15 
     name upperneck
     direction 0.0886204 0.955665 -0.280805   
     length 1.92526   
     axis 0 0 0   XYZ
    dof rx ry rz
    limits (-20.0 45.0)
           (-30.0 30.0)
           (-30.0 30.0)
  end
  begin
     id 16
     name head
     direction 0.0233423 0.993502 -0.111393  
     length 1.96056  
     axis 0 0 0   XYZ
    dof rx ry rz
    limits (-20.0 45.0)
           (-30.0 30.0)
           (-30.0 30.0)
  end
  begin
     id 17 
     name lclavicle
     direction 0.941873 0.32922 0.0670041  
     length 3.31705  
     axis 0 0 0   XYZ
    dof ry rz
    limits (-20.0 10.0)
           (0.0 20.0)
  end
  begin
     id 18 
     name lhumerus
     direction 1 -4.4898e-011 3.38707e-028   
     length 5.29277   
     axis 180 -30 -90   XYZ
    dof rx ry rz
    limits (-60.0 90.0)
           (-90.0 90.0)
           (-90.0 90.0)
  end
  begin
     id 19
     name lradius
     direction 1 -4.48952e-011 1.63213e-028   
     length 2.85226   
     axis 180 -30 -90   XYZ
    dof rx
    limits (-10.0 170.0)
  end
  begin
     id 20
     name lwrist
     direction 1 -4.49001e-011 1.27856e-027   
     length 1.42613   
     axis -1.61767e-015 90 90   XYZ
    dof ry
    limits (-180.0 0.0)
 end
  begin
     id 21 
     name lhand
     direction 1 -4.48976e-011 2.55931e-027   
     length 0.602097   
     axis -1.63363e-015 90 90   XYZ
    dof rx rz
    limits (-90.0 90.0)
           (-45.0 45.0)
  end
  begin
     id 22 
     name lfingers
     direction 1 -4.48986e-011 5.11684e-027   
     length 0.485426   
     axis -3.26723e-015 90 90   XYZ
    dof rx
    limits (0.0 90.0)
  end
  begin
     id 23
     name lthumb
     direction 0.707107 -6.34915e-011 0.707107   
     length 0.696978   
     axis -90 45 -2.25915e-014   XYZ
    dof rx rz
    limits (-45.0 45.0)
           (-45.0 45.0)
  end
  begin
     id 24 
     name rclavicle
     direction -0.939974 0.327078 0.0973096   
     length 3.10337  
     axis 0 0 0   XYZ 
    dof ry rz
    limits (-10.0 20.0)
           (-20.0 0.0)
  end
  begin
     id 25 
     name rhumerus
     direction -1 -4.48975e-011 1.83745e-027  
     length 5.13304   
     axis 180 30 90   XYZ
    dof rx ry rz
    limits (-90.0 60.0)
           (-90.0 90.0)
           (-90.0 90.0)
  end
  begin
     id 26 
     name rradius
     direction -1 -4.48977e-011 7.1775e-029   
     length 2.74305   
     axis 180 30 90   XYZ
    dof rx
    limits (-10.0 170.0)
  end
  begin
     id 27 
     name rwrist
     direction -1 -4.48977e-011 1.27963e-027   
     length 1.37152   
     axis -1.61767e-015 -90 -90   XYZ
    dof ry
    limits (-180.0 0.0)
  end
  begin
     id 28
     name rhand
     direction -1 -4.4888e-011 2.56782e-027   
     length 0.767976   
     axis -1.63363e-015 -90 -90   XYZ
    dof rx rz
    limits (-90.0 90.0)
           (-45.0 45.0)
  end
  begin
     id 29
     name rfingers
     direction -1 -4.48947e-011 5.12384e-027   
     length 0.619162   
     axis -3.26723e-015 -90 -90   XYZ
    dof rx
    limits (0.0 90.0)
  end
  begin
     id 30
     name rthumb
     direction -0.707107 -6.34857e-011 0.707107   
     length 0.888997   
     axis -90 -45 2.25915e-014   XYZ
    dof rx rz
    limits (-45.0 45.0)
           (-45.0 45.0)
  end
:hierarchy
  begin
    root lhipjoint rhipjoint lowerback
    lhipjoint lfemur
    lfemur ltibia
    ltibia lfoot
    lfoot ltoes
    rhipjoint rfemur
    rfemur rtibia
    rtibia rfoot
    rfoot rtoes
    lowerback upperback
    upperback thorax
    thorax lowerneck lclavicle rclavicle
    lowerneck upperneck
    upperneck head
    lclavicle lhumerus
    lhumerus lradius
    lradius lwrist
    lwrist lhand lthumb
    lhand lfingers
    rclavicle rhumerus
    rhumerus rradius
    rradius rwrist
    rwrist rhand rthumb
    rhand rfingers
  end

#!OML:ASF F:\VICON\USERDATA\INSTALL\rory3\rory3.ASF
:FULLY-SPECIFIED
:DEGREES
1
root 0.195312 17.4756 0.510748 5.25056 3.89179 -1.6609
lowerback -4.39401 -0.104192 -1.40603
upperback -3.42355 -0.0818258 2.10235
thorax -1.05047 0.00840224 2.94766
lowerneck -10.6305 -11.559 -18.5125
upperneck 22.1149 -17.1432 17.4434
head 12.2869 -7.74502 6.92757
rclavicle 3.35449e-015 2.42517e-014
rhumerus -34.0939 -0.0825041 -87.0304
rradius 22.9778
rwrist 30.1755
rhand -10.7861 11.9791
rfingers 7.12502
rthumb 15.2266 -17.4406
lclavicle 3.35449e-015 2.42517e-014
lhumerus -32.4441 -2.95401 93.9381
lradius 16.3027
lwrist -24.2049
lhand -9.74618 23.4081
lfingers 7.12502
lthumb 16.2281 52.7489
rfemur 2.81952 7.879 19.4795
rtibia -4.77083e-015
rfoot -7.54799 -9.32566
rtoes -12.2952
lfemur -7.3222 -22.3249 -15.2938
ltibia 15.1951
lfoot -13.5121 14.0321
ltoes -19.2604
2
root 0.19908 17.4801 0.509197 5.27758 3.86531 -1.6977
lowerback -4.39584 -0.0991747 -1.28104
upperback -3.43836 -0.0789935 2.08227
thorax -1.06471 0.00766023 2.85656
lowerneck -10.67 -11.5686 -18.4787
upperneck 22.1479 -17.1529 17.4059
head 12.3019 -7.74736 6.90435
rclavicle -9.34288e-015 -9.93923e-015
rhumerus -34.134 0.0232872 -87.1435
rradius 23.0058
rwrist 30.0431
rhand -10.5376 11.8413
rfingers 7.12502
rthumb 15.4659 -17.56
lclavicle -9.34288e-015 -9.93923e-015
lhumerus -32.3774 -2.80442 93.8152
lradius 16.1733
lwrist -24.273
lhand -9.92492 23.0039
lfingers 7.12502
lthumb 16.0559 52.3586
rfemur 2.79777 7.90823 19.4953
rtibia 9.54166e-015
rfoot -7.6705 -9.23209
rtoes -11.3254
lfemur -7.43602 -22.2431 -15.2818
ltibia 15.3897
lfoot -13.2944 14.2564
ltoes -22.48
3
root 0.20136 17.4816 0.506813 5.25064 3.85255 -1.7068
lowerback -4.35003 -0.104742 -1.24304
upperback -3.42558 -0.0878818 2.08805
thorax -1.07653 0.00256562 2.84078
lowerneck -10.6614 -11.5664 -18.4408
upperneck 22.1179 -17.1347 17.3424
head 12.2726 -7.74256 6.87507
rclavicle -2.43511e-015 -7.95139e-016
rhumerus -34.1437 0.112362 -87.2137
rradius 23.0144
rwrist 29.9749
rhand -10.4717 11.8039
rfingers 7.12502
rthumb 15.5293 -17.5925
lclavicle -2.43511e-015 -7.95139e-016
lhumerus -32.3291 -2.42782 93.636
lradius 16.0755
lwrist -24.586
lhand -9.98422 22.7179
lfingers 7.12502
lthumb 15.9988 52.0772
rfemur 2.84607 7.92208 19.5051
rtibia 7.95139e-015
rfoot -7.70443 -9.2416
rtoes -11.6264
lfemur -7.41755 -22.2754 -15.2873
ltibia 15.4012
lfoot -13.3787 14.2495
ltoes -21.9836
4
root 0.202241 17.4818 0.504113 5.26443 3.84153 -1.7119
lowerback -4.36721 -0.11169 -1.22809
upperback -3.4168 -0.0976492 2.09556
thorax -1.05732 -0.00281991 2.83975
lowerneck -10.628 -11.5554 -18.3918
upperneck 22.0753 -17.1137 17.2987
head 12.234 -7.73537 6.85332
rclavicle 3.37934e-015 1.27222e-014
rhumerus -34.1421 0.214403 -87.283
rradius 23.0088
rwrist 29.8743
rhand -10.348 11.9173
rfingers 7.12502
rthumb 15.6485 -17.4698
lclavicle 3.37934e-015 1.27222e-014
lhumerus -32.3197 -2.18718 93.5352
lradius 16.0562
lwrist -24.7679
lhand -10.0376 22.6146
lfingers 7.12502
lthumb 15.9474 51.9781
rfemur 2.82813 7.93341 19.5089
rtibia -6.36111e-015
rfoot -7.67555 -9.26004
rtoes -11.3499
lfemur -7.43738 -22.2921 -15.2792
ltibia 15.4026
lfoot -13.4519 14.2726
ltoes -21.6879
5
root 0.203084 17.4801 0.500776 5.25896 3.84676 -1.71598
lowerback -4.31978 -0.115464 -1.21744
upperback -3.43194 -0.102915 2.10081
thorax -1.09906 -0.00499158 2.83906
lowerneck -10.5608 -11.5465 -18.4145
upperneck 22.0162 -17.1075 17.334
head 12.2024 -7.73584 6.87312
rclavicle 2.48481e-016 5.96354e-015
rhumerus -34.1652 0.259066 -87.331
rradius 22.9754
rwrist 29.8003
rhand -10.281 12.0137
rfingers 7.12502
rthumb 15.7131 -17.3684
lclavicle 2.48481e-016 5.96354e-015
lhumerus -32.3041 -1.96405 93.4284
lradius 15.9735
lwrist -24.9416
lhand -9.97627 22.4049
lfingers 7.12502
lthumb 16.0065 51.7636
rfemur 2.82217 7.92854 19.5131
rtibia -1.59028e-015
rfoot -7.63997 -9.29027
rtoes -11.088
lfemur -7.4109 -22.3295 -15.2664
ltibia 15.3267
lfoot -13.4534 14.1833
ltoes -20.7421
